HIERARCHY
ROOT hip
{
	OFFSET 0.000000 0.000000 0.000000
	CHANNELS 6 Xposition Yposition Zposition Xrotation Zrotation Yrotation 
	JOINT abdomen
	{
		OFFSET 0.000000 3.422050 0.000000
		CHANNELS 3 Xrotation Zrotation Yrotation 
		JOINT chest
		{
			OFFSET 0.000000 8.486693 -0.684411
			CHANNELS 3 Xrotation Zrotation Yrotation 
			JOINT neck
			{
				OFFSET 0.000000 10.266162 -0.273764
				CHANNELS 3 Xrotation Zrotation Yrotation 
				JOINT head
				{
					OFFSET 0.000000 3.148285 0.000000
					CHANNELS 3 Xrotation Zrotation Yrotation 
					End Site
					{
						OFFSET 0.000000 3.148289 0.000000
					}
				}
			}
			JOINT lCollar
			{
				OFFSET 3.422053 6.707223 -0.821293
				CHANNELS 3 Yrotation Zrotation Xrotation 
				JOINT lShldr
				{
					OFFSET 3.285171 0.000000 0.000000
					CHANNELS 3 Zrotation Yrotation Xrotation 
					JOINT lForeArm
					{
						OFFSET 10.129278 0.000000 0.000000
						CHANNELS 3 Yrotation Zrotation Xrotation 
						JOINT lHand
						{
							OFFSET 8.486692 0.000000 0.000000
							CHANNELS 3 Zrotation Yrotation Xrotation 
							End Site
							{
								OFFSET 4.106464 0.000000 0.000000
							}
						}
					}
				}
			}
			JOINT rCollar
			{
				OFFSET -3.558935 6.707223 -0.821293
				CHANNELS 3 Yrotation Zrotation Xrotation 
				JOINT rShldr
				{
					OFFSET -3.148289 0.000000 0.000000
					CHANNELS 3 Zrotation Yrotation Xrotation 
					JOINT rForeArm
					{
						OFFSET -10.266159 0.000000 0.000000
						CHANNELS 3 Yrotation Zrotation Xrotation 
						JOINT rHand
						{
							OFFSET -8.349810 0.000000 0.000000
							CHANNELS 3 Zrotation Yrotation Xrotation 
							End Site
							{
								OFFSET -4.106464 0.000000 0.000000
							}
						}
					}
				}
			}
		}
	}
	JOINT lThigh
	{
		OFFSET 5.338403 -1.642589 1.368821
		CHANNELS 3 Xrotation Zrotation Yrotation 
		JOINT lShin
		{
			OFFSET -2.053232 -20.121670 0.000000
			CHANNELS 3 Xrotation Zrotation Yrotation 
			JOINT lFoot
			{
				OFFSET 0.000000 -19.300380 -1.231939
				CHANNELS 3 Xrotation Yrotation Zrotation 
				End Site
				{
					OFFSET 0.000000 -2.463878 4.653993
				}
			}
		}
	}
	JOINT rThigh
	{
		OFFSET -5.338403 -1.642589 1.368821
		CHANNELS 3 Xrotation Zrotation Yrotation 
		JOINT rShin
		{
			OFFSET 2.053232 -20.121670 0.000000
			CHANNELS 3 Xrotation Zrotation Yrotation 
			JOINT rFoot
			{
				OFFSET 0.000000 -19.300380 -1.231939
				CHANNELS 3 Xrotation Yrotation Zrotation 
				End Site
				{
					OFFSET 0.000000 -2.463878 4.653993
				}
			}
		}
	}
}
MOTION
Frames: 15
Frame Time: 0.033264
0.000000 7.997272 0.000000 0.000000 0.000000 0.000000 48.996319 0.000000 0.000000 13.695231 0.000000 0.000000 1.383607 -0.050342 -9.000666 -34.652153 -0.842102 -7.581278 -2.002196 0.000000 0.000000 19.370022 -84.003075 -19.001661 -27.011364 0.000000 0.000000 48.996319 0.000000 0.000000 11.997753 0.000000 0.000000 -6.392211 62.397644 0.704288 31.998375 0.000000 0.000000 -54.605686 0.000000 0.000000 -71.002243 15.998086 -0.002042 149.993622 0.000000 0.000000 63.997410 -0.000001 0.000001 -72.002914 -16.002325 -0.002221 149.993622 0.000000 0.000000 63.997410 -0.000001 0.000001 
0.000000 7.997272 0.000000 0.000000 0.000000 0.000000 48.996311 0.000000 0.000000 13.602076 0.000000 0.000000 1.376681 -0.050631 -8.955644 -34.478237 -0.890842 -8.130942 -2.002196 0.000000 0.000000 20.406164 -84.002998 -19.001444 -26.918707 0.000000 0.000000 48.996311 0.000000 0.000000 11.997753 0.000000 0.000000 -7.931271 62.382866 0.659531 31.998375 0.000000 0.000000 -54.147884 0.000000 0.000000 -71.002243 15.998086 -0.002042 149.993622 0.000000 0.000000 63.997410 -0.000001 0.000001 -72.002914 -16.002325 -0.002221 149.993622 0.000000 0.000000 63.997410 -0.000001 0.000001 
0.000000 7.997272 0.000000 0.000000 0.000000 0.000000 48.996307 0.000000 0.000000 13.508904 0.000000 0.000000 1.369754 -0.050915 -8.910621 -34.303619 -0.937977 -8.681541 -2.002196 0.000000 0.000000 21.442732 -84.002953 -19.001226 -26.826042 0.000000 0.000000 48.996307 0.000000 0.000000 11.997753 0.000000 0.000000 -9.470322 62.367523 0.615645 31.998375 0.000000 0.000000 -53.690044 0.000000 0.000000 -71.002243 15.998086 -0.002042 149.993622 0.000000 0.000000 63.997410 -0.000001 0.000001 -72.002914 -16.002325 -0.002221 149.993622 0.000000 0.000000 63.997410 -0.000001 0.000001 
0.000000 7.997272 0.000000 0.000000 0.000000 0.000000 48.996319 0.000000 0.000000 13.415726 0.000000 0.000000 1.362827 -0.051194 -8.865601 -34.128296 -0.983494 -9.233044 -2.002196 0.000000 0.000000 22.479525 -84.002846 -19.000978 -26.733374 0.000000 0.000000 48.996319 0.000000 0.000000 11.997753 0.000000 0.000000 -11.008817 62.351669 0.572678 31.998375 0.000000 0.000000 -53.232178 0.000000 0.000000 -71.002243 15.998086 -0.002042 149.993622 0.000000 0.000000 63.997410 -0.000001 0.000001 -72.002914 -16.002325 -0.002221 149.993622 0.000000 0.000000 63.997410 -0.000001 0.000001 
0.000000 7.997272 0.000000 0.000000 0.000000 0.000000 48.996311 0.000000 0.000000 13.322534 0.000000 0.000000 1.355900 -0.051467 -8.820578 -33.952328 -1.027378 -9.785420 -2.002196 0.000000 0.000000 23.516439 -84.002853 -19.000765 -26.640697 0.000000 0.000000 48.996311 0.000000 0.000000 11.997753 0.000000 0.000000 -12.546190 62.335266 0.530677 31.998375 0.000000 0.000000 -52.774303 0.000000 0.000000 -71.002243 15.998086 -0.002042 149.993622 0.000000 0.000000 63.997410 -0.000001 0.000001 -72.002914 -16.002325 -0.002221 149.993622 0.000000 0.000000 63.997410 -0.000001 0.000001 
0.000000 7.997272 0.000000 0.000000 0.000000 0.000000 48.996307 0.000000 0.000000 13.229331 0.000000 0.000000 1.348973 -0.051735 -8.775556 -33.775707 -1.069616 -10.338639 -2.002196 0.000000 0.000000 24.553196 -84.002785 -19.000483 -26.548014 0.000000 0.000000 48.996307 0.000000 0.000000 11.997753 0.000000 0.000000 -14.081894 62.318333 0.489680 31.998375 0.000000 0.000000 -52.316437 0.000000 0.000000 -71.002243 15.998086 -0.002042 149.993622 0.000000 0.000000 63.997410 -0.000001 0.000001 -72.002914 -16.002325 -0.002221 149.993622 0.000000 0.000000 63.997410 -0.000001 0.000001 
0.000000 7.997272 0.000000 0.000000 0.000000 0.000000 48.996311 0.000000 0.000000 13.136115 0.000000 0.000000 1.342044 -0.051998 -8.730530 -33.598457 -1.110193 -10.892665 -2.002196 0.000000 0.000000 25.589754 -84.002777 -19.000250 -26.455320 0.000000 0.000000 48.996311 0.000000 0.000000 11.997753 0.000000 0.000000 -15.615391 62.300972 0.449731 31.998375 0.000000 0.000000 -51.858597 0.000000 0.000000 -71.002243 15.998086 -0.002042 149.993622 0.000000 0.000000 63.997410 -0.000001 0.000001 -72.002914 -16.002325 -0.002221 149.993622 0.000000 0.000000 63.997410 -0.000001 0.000001 
0.000000 7.997272 0.000000 0.000000 0.000000 0.000000 48.996311 0.000000 0.000000 13.042892 0.000000 0.000000 1.335116 -0.052255 -8.685504 -33.420631 -1.149102 -11.447474 -2.002196 0.000000 0.000000 26.625853 -84.002701 -18.999989 -26.362633 0.000000 0.000000 48.996311 0.000000 0.000000 11.997753 0.000000 0.000000 -17.146112 62.283073 0.410865 31.998375 0.000000 0.000000 -51.400787 0.000000 0.000000 -71.002243 15.998086 -0.002042 149.993622 0.000000 0.000000 63.997410 -0.000001 0.000001 -72.002914 -16.002325 -0.002221 149.993622 0.000000 0.000000 63.997410 -0.000001 0.000001 
0.000000 7.997272 0.000000 0.000000 0.000000 0.000000 48.996311 0.000000 0.000000 12.949659 0.000000 0.000000 1.328188 -0.052506 -8.640479 -33.242226 -1.186327 -12.003029 -2.002196 0.000000 0.000000 27.661333 -84.002647 -18.999701 -26.269930 0.000000 0.000000 48.996311 0.000000 0.000000 11.997753 0.000000 0.000000 -18.673552 62.264778 0.373120 31.998375 0.000000 0.000000 -50.943043 0.000000 0.000000 -71.002243 15.998086 -0.002042 149.993622 0.000000 0.000000 63.997410 -0.000001 0.000001 -72.002914 -16.002325 -0.002221 149.993622 0.000000 0.000000 63.997410 -0.000001 0.000001 
0.000000 7.997272 0.000000 0.000000 0.000000 0.000000 48.996311 0.000000 0.000000 12.856413 0.000000 0.000000 1.321259 -0.052752 -8.595453 -33.063274 -1.221856 -12.559296 -2.002196 0.000000 0.000000 28.696070 -84.002594 -18.999434 -26.177223 0.000000 0.000000 48.996311 0.000000 0.000000 11.997753 0.000000 0.000000 -20.197161 62.246040 0.336530 31.998375 0.000000 0.000000 -50.485344 0.000000 0.000000 -71.002243 15.998086 -0.002042 149.993622 0.000000 0.000000 63.997410 -0.000001 0.000001 -72.002914 -16.002325 -0.002221 149.993622 0.000000 0.000000 63.997410 -0.000001 0.000001 
0.000000 7.997272 0.000000 0.000000 0.000000 0.000000 48.996311 0.000000 0.000000 12.763158 0.000000 0.000000 1.314330 -0.052993 -8.550425 -32.883812 -1.255682 -13.116248 -2.002196 0.000000 0.000000 29.729820 -84.002541 -18.999104 -26.084511 0.000000 0.000000 48.996311 0.000000 0.000000 11.997753 0.000000 0.000000 -21.716413 62.226883 0.301120 31.998375 0.000000 0.000000 -50.027737 0.000000 0.000000 -71.002243 15.998086 -0.002042 149.993622 0.000000 0.000000 63.997410 -0.000001 0.000001 -72.002914 -16.002325 -0.002221 149.993622 0.000000 0.000000 63.997410 -0.000001 0.000001 
0.000000 7.997272 0.000000 0.000000 0.000000 0.000000 48.996311 0.000000 0.000000 12.669890 0.000000 0.000000 1.307401 -0.053228 -8.505398 -32.703835 -1.287791 -13.673846 -2.002196 0.000000 0.000000 30.762592 -84.002609 -18.998878 -25.991798 0.000000 0.000000 48.996311 0.000000 0.000000 11.997753 0.000000 0.000000 -23.230812 62.207363 0.266918 31.998375 0.000000 0.000000 -49.570225 0.000000 0.000000 -71.002243 15.998086 -0.002042 149.993622 0.000000 0.000000 63.997410 -0.000001 0.000001 -72.002914 -16.002325 -0.002221 149.993622 0.000000 0.000000 63.997410 -0.000001 0.000001 
0.000000 7.997272 0.000000 0.000000 0.000000 0.000000 48.996319 0.000000 0.000000 12.576616 0.000000 0.000000 1.300471 -0.053458 -8.460368 -32.523403 -1.318175 -14.232059 -2.002196 0.000000 0.000000 31.793903 -84.002411 -18.998497 -25.899071 0.000000 0.000000 48.996319 0.000000 0.000000 11.997753 0.000000 0.000000 -24.739861 62.187508 0.233949 31.998375 0.000000 0.000000 -49.112823 0.000000 0.000000 -71.002243 15.998086 -0.002042 149.993622 0.000000 0.000000 63.997410 -0.000001 0.000001 -72.002914 -16.002325 -0.002221 149.993622 0.000000 0.000000 63.997410 -0.000001 0.000001 
0.000000 7.997272 0.000000 0.000000 0.000000 0.000000 48.996307 0.000000 0.000000 12.483327 0.000000 0.000000 1.293541 -0.053682 -8.415339 -32.342518 -1.346823 -14.790852 -2.002196 0.000000 0.000000 32.823933 -84.002464 -18.998217 -25.806345 0.000000 0.000000 48.996307 0.000000 0.000000 11.997753 0.000000 0.000000 -26.243029 62.167282 0.202241 31.998375 0.000000 0.000000 -48.655544 0.000000 0.000000 -71.002243 15.998086 -0.002042 149.993622 0.000000 0.000000 63.997410 -0.000001 0.000001 -72.002914 -16.002325 -0.002221 149.993622 0.000000 0.000000 63.997410 -0.000001 0.000001 
0.000000 7.997272 0.000000 0.000000 0.000000 0.000000 48.996315 0.000000 0.000000 12.390030 0.000000 0.000000 1.286611 -0.053901 -8.370310 -32.161213 -1.373728 -15.350198 -2.002196 0.000000 0.000000 33.852329 -84.002457 -18.997906 -25.713615 0.000000 0.000000 48.996315 0.000000 0.000000 11.997753 0.000000 0.000000 -27.739864 62.146759 0.171802 31.998375 0.000000 0.000000 -48.198391 0.000000 0.000000 -71.002243 15.998086 -0.002042 149.993622 0.000000 0.000000 63.997410 -0.000001 0.000001 -72.002914 -16.002325 -0.002221 149.993622 0.000000 0.000000 63.997410 -0.000001 0.000001 
